<svg width="122" height="143" viewBox="0 0 122 143" fill="none" xmlns="http://www.w3.org/2000/svg">
<path d="M121.67 46.16L117.27 34.21L120.33 27.35C120.522 26.9172 120.579 26.4365 120.494 25.9708C120.408 25.505 120.184 25.076 119.85 24.74L111.53 16.33C109.744 14.5177 107.48 13.25 105.001 12.6747C102.523 12.0993 99.9317 12.2399 97.53 13.08L95.2 13.89L82.49 0.119995L60.93 0H60.79L39.09 0.169998L26.39 14.05L24.13 13.25C21.7127 12.3999 19.103 12.257 16.6073 12.8379C14.1116 13.4189 11.8334 14.6997 10.04 16.53L1.56999 25.1C1.30417 25.3679 1.12562 25.7099 1.0578 26.0811C0.989978 26.4524 1.03607 26.8354 1.19 27.18L4.38 34.3L0 46.24L2.83 57.01L15.74 106.09C17.2273 111.744 20.6489 116.698 25.41 120.09C25.41 120.09 41.08 131.14 56.54 141.18C57.7626 142.156 59.2806 142.688 60.845 142.688C62.4094 142.688 63.9274 142.156 65.15 141.18C82.52 129.8 96.26 120.05 96.26 120.05C101.017 116.656 104.435 111.702 105.92 106.05L118.76 56.95L121.67 46.16Z" fill="url(#paint0_linear_1456_7962)"/>
<path d="M64.3898 88.45C63.5668 88.0816 62.7178 87.7741 61.8498 87.53H60.3198C59.4517 87.7741 58.6028 88.0816 57.7798 88.45L53.9298 90.05C52.7098 90.56 50.7498 91.47 49.5798 92.05L42.4998 95.74C42.2434 95.8232 42.0178 95.9813 41.852 96.1938C41.6862 96.4063 41.5878 96.6636 41.5695 96.9325C41.5512 97.2015 41.6139 97.4697 41.7494 97.7028C41.8849 97.9358 42.087 98.1229 42.3298 98.24L48.4798 102.58C49.5598 103.34 51.2598 104.68 52.2598 105.58L53.9898 107.07C54.9898 107.93 56.6198 109.36 57.6098 110.24L59.2498 111.69C59.7565 112.112 60.3952 112.343 61.0548 112.343C61.7144 112.343 62.3531 112.112 62.8598 111.69L64.5798 110.19L68.1998 107.03L69.9398 105.51C70.9398 104.64 72.6298 103.3 73.7098 102.51L79.8598 98.11C80.1031 97.9932 80.3054 97.8057 80.4404 97.5719C80.5753 97.3382 80.6365 97.0692 80.616 96.8001C80.5954 96.531 80.4941 96.2744 80.3253 96.0638C80.1565 95.8532 79.928 95.6986 79.6698 95.62L72.5998 92.03C71.4198 91.43 69.4598 90.53 68.2298 90.03L64.3898 88.45Z" fill="white"/>
<path d="M107.99 48.83L108.19 48.19C108.202 47.3339 108.148 46.478 108.03 45.63C107.435 44.1152 106.67 42.6727 105.75 41.33L101.75 35.46C101.01 34.36 99.7501 32.62 98.9001 31.59L93.5401 24.88C93.0512 24.226 92.5201 23.6047 91.9501 23.02H91.8401C91.8401 23.02 90.7601 23.21 89.4601 23.46L81.2701 25.04L77.6801 25.73C76.4883 25.786 75.2967 25.6129 74.1701 25.22L67.7001 23.13C66.4401 22.72 64.3601 22.13 63.0701 21.85C61.7106 21.7055 60.3396 21.7055 58.9801 21.85C57.6901 22.15 55.6101 22.73 54.3501 23.14L47.8801 25.24C46.7535 25.6329 45.562 25.806 44.3701 25.75L40.7801 25.07L32.5801 23.5C31.2801 23.25 30.2101 23.05 30.2001 23.06H30.0901C29.5202 23.6447 28.989 24.266 28.5001 24.92L23.1501 31.63C22.3301 32.63 21.0401 34.41 20.3001 35.5L16.3001 41.37C15.6093 42.3823 14.9782 43.4341 14.4101 44.52C14.0675 45.7309 13.8859 46.9817 13.8701 48.24L14.0701 48.88C14.1664 49.2911 14.29 49.6954 14.4401 50.09C15.2701 51.09 16.6901 52.75 17.6001 53.72L31.6001 68.6C32.0649 69.1426 32.3759 69.7997 32.5007 70.5032C32.6256 71.2066 32.5598 71.9306 32.3101 72.6L30.0201 78.03C29.4994 79.4686 29.4608 81.0376 29.9101 82.5L30.3701 83.76C31.1217 85.8064 32.4101 87.6129 34.1001 88.99L36.3001 90.78C36.8716 91.1923 37.5385 91.4526 38.2381 91.5365C38.9378 91.6205 39.6473 91.5253 40.3001 91.26L48.1201 87.53C49.5556 86.8114 50.8987 85.9216 52.1201 84.88L58.3801 79.23C58.6295 79.0049 58.8311 78.732 58.9731 78.4276C59.115 78.1231 59.1944 77.7932 59.2065 77.4575C59.2186 77.1218 59.1632 76.7871 59.0436 76.4731C58.924 76.1592 58.7426 75.8725 58.5101 75.63L44.3801 66.11C43.8451 65.7304 43.4641 65.1714 43.3062 64.5346C43.1484 63.8978 43.2243 63.2256 43.5201 62.64L49.0001 52.34C49.3118 51.7095 49.496 51.0237 49.5423 50.3219C49.5887 49.6201 49.4962 48.916 49.2701 48.25C48.5896 46.9795 47.4909 45.9833 46.1601 45.43L28.9801 38.94C27.7401 38.47 27.8101 37.94 29.1201 37.86L39.2101 36.86C40.7923 36.7594 42.3807 36.901 43.9201 37.28L52.7001 39.73C53.3235 39.9179 53.8575 40.3255 54.2032 40.8771C54.5489 41.4288 54.6829 42.0871 54.5801 42.73L51.1301 61.57C50.8994 62.6135 50.8419 63.6879 50.9601 64.75C51.1001 65.2 52.2801 65.75 53.5701 66.07L58.9201 67.21C60.4738 67.4956 62.0665 67.4956 63.6201 67.21L68.4301 66.12C69.7201 65.83 70.8901 65.22 71.0401 64.77C71.1552 63.7073 71.0944 62.6329 70.8601 61.59L67.3901 42.75C67.2874 42.1071 67.4213 41.4488 67.767 40.8971C68.1127 40.3455 68.6468 39.9379 69.2701 39.75L78.0501 37.29C79.5896 36.9109 81.1779 36.7692 82.7601 36.87L92.8501 37.81C94.1701 37.93 94.2301 38.42 93.0001 38.89L75.8301 45.4C74.4993 45.9533 73.4006 46.9496 72.7201 48.22C72.2647 49.5653 72.3618 51.0363 72.9901 52.31L78.4801 62.61C78.7759 63.1956 78.8518 63.8678 78.694 64.5046C78.5362 65.1414 78.1551 65.7004 77.6201 66.08L63.5001 75.62C63.2677 75.8625 63.0862 76.1492 62.9666 76.4632C62.847 76.7771 62.7916 77.1118 62.8037 77.4475C62.8158 77.7832 62.8952 78.1131 63.0372 78.4176C63.1791 78.722 63.3808 78.9949 63.6301 79.22L69.9001 84.87C71.1221 85.9081 72.4652 86.7945 73.9001 87.51L81.7201 91.23C82.3738 91.4939 83.0837 91.5874 83.7834 91.5017C84.4831 91.416 85.1495 91.1539 85.7201 90.74L87.9201 88.94C89.612 87.5605 90.9005 85.7503 91.6501 83.7L92.1101 82.44C92.5594 80.9776 92.5208 79.4086 92.0001 77.97L89.7001 72.54C89.4505 71.8706 89.3846 71.1466 89.5095 70.4432C89.6344 69.7397 89.9453 69.0826 90.4101 68.54L104.41 53.64C105.32 52.64 106.73 51.04 107.56 50.01C107.729 49.6266 107.873 49.2324 107.99 48.83Z" fill="white"/>
<defs>
<linearGradient id="paint0_linear_1456_7962" x1="0.04" y1="71.35" x2="121.63" y2="71.35" gradientUnits="userSpaceOnUse">
<stop stop-color="#F1562B"/>
<stop offset="0.3" stop-color="#F1542B"/>
<stop offset="0.41" stop-color="#F04D2A"/>
<stop offset="0.49" stop-color="#EF4229"/>
<stop offset="0.5" stop-color="#EF4029"/>
<stop offset="0.56" stop-color="#E83E28"/>
<stop offset="0.67" stop-color="#E13C26"/>
<stop offset="1" stop-color="#DF3C26"/>
</linearGradient>
</defs>
</svg>
