<svg width="91" height="24" viewBox="0 0 91 24" fill="none" xmlns="http://www.w3.org/2000/svg">
<g clip-path="url(#clip0_1446_7581)">
<rect x="1.125" y="1.125" width="21.75" height="21.75" rx="3.75" fill="#0000FF"/>
<circle cx="12" cy="12" r="6" fill="white"/>
</g>
<path d="M90.5927 17.952C90.2847 18.134 89.8577 18.225 89.3117 18.225C88.8497 18.225 88.4787 18.099 88.1987 17.847C87.9327 17.581 87.7997 17.154 87.7997 16.566C87.3097 17.154 86.7357 17.581 86.0777 17.847C85.4337 18.099 84.7337 18.225 83.9777 18.225C83.4877 18.225 83.0187 18.169 82.5707 18.057C82.1367 17.945 81.7587 17.77 81.4367 17.532C81.1147 17.294 80.8557 16.986 80.6597 16.608C80.4777 16.216 80.3867 15.7469 80.3867 15.2009C80.3867 14.5849 80.4917 14.081 80.7017 13.689C80.9117 13.297 81.1847 12.9819 81.5207 12.744C81.8707 12.492 82.2627 12.3029 82.6967 12.1769C83.1447 12.0509 83.5997 11.9459 84.0617 11.8619C84.5517 11.7639 85.0137 11.6939 85.4477 11.6519C85.8957 11.5959 86.2877 11.5259 86.6237 11.4419C86.9597 11.3439 87.2257 11.2109 87.4217 11.0429C87.6177 10.8609 87.7157 10.6019 87.7157 10.2659C87.7157 9.87395 87.6387 9.55895 87.4847 9.32095C87.3447 9.08295 87.1557 8.90095 86.9177 8.77495C86.6937 8.64895 86.4347 8.56495 86.1407 8.52295C85.8607 8.48095 85.5807 8.45995 85.3007 8.45995C84.5447 8.45995 83.9147 8.60695 83.4107 8.90095C82.9067 9.18095 82.6337 9.71995 82.5917 10.5179H80.8067C80.8347 9.84595 80.9747 9.27895 81.2267 8.81695C81.4787 8.35495 81.8147 7.98395 82.2347 7.70395C82.6547 7.40995 83.1307 7.19995 83.6627 7.07395C84.2087 6.94795 84.7897 6.88495 85.4057 6.88495C85.8957 6.88495 86.3787 6.91995 86.8547 6.98995C87.3447 7.05995 87.7857 7.20695 88.1777 7.43095C88.5697 7.64095 88.8847 7.94195 89.1227 8.33395C89.3607 8.72595 89.4797 9.23695 89.4797 9.86695V15.4529C89.4797 15.873 89.5007 16.181 89.5427 16.377C89.5987 16.573 89.7667 16.671 90.0467 16.671C90.2007 16.671 90.3827 16.636 90.5927 16.566V17.952ZM87.6947 12.387C87.4707 12.555 87.1767 12.6809 86.8127 12.765C86.4487 12.8349 86.0637 12.8979 85.6577 12.9539C85.2657 12.9959 84.8667 13.0519 84.4607 13.1219C84.0547 13.1779 83.6907 13.276 83.3687 13.416C83.0467 13.556 82.7807 13.759 82.5707 14.025C82.3747 14.277 82.2767 14.627 82.2767 15.075C82.2767 15.369 82.3327 15.6209 82.4447 15.8309C82.5707 16.0269 82.7247 16.188 82.9067 16.314C83.1027 16.44 83.3267 16.531 83.5787 16.587C83.8307 16.643 84.0967 16.671 84.3767 16.671C84.9647 16.671 85.4687 16.594 85.8887 16.44C86.3087 16.2719 86.6517 16.0689 86.9177 15.8309C87.1837 15.5789 87.3797 15.313 87.5057 15.033C87.6317 14.739 87.6947 14.4659 87.6947 14.2139V12.387Z" fill="black"/>
<path d="M67.96 3H69.745V8.607H69.787C70.081 8.005 70.543 7.571 71.173 7.305C71.803 7.025 72.496 6.885 73.252 6.885C74.092 6.885 74.82 7.039 75.436 7.347C76.066 7.655 76.584 8.075 76.99 8.607C77.41 9.125 77.725 9.727 77.935 10.413C78.145 11.099 78.25 11.827 78.25 12.597C78.25 13.367 78.145 14.095 77.935 14.781C77.739 15.467 77.431 16.069 77.011 16.587C76.605 17.091 76.087 17.49 75.457 17.784C74.841 18.078 74.12 18.225 73.294 18.225C73.028 18.225 72.727 18.197 72.391 18.141C72.069 18.085 71.747 17.994 71.425 17.868C71.103 17.742 70.795 17.574 70.501 17.364C70.221 17.14 69.983 16.867 69.787 16.545H69.745V17.994H67.96V3ZM76.36 12.471C76.36 11.967 76.29 11.477 76.15 11.001C76.024 10.511 75.821 10.077 75.541 9.699C75.275 9.321 74.925 9.02 74.491 8.796C74.071 8.572 73.574 8.46 73 8.46C72.398 8.46 71.887 8.579 71.467 8.817C71.047 9.055 70.704 9.37 70.438 9.762C70.172 10.14 69.976 10.574 69.85 11.064C69.738 11.554 69.682 12.051 69.682 12.555C69.682 13.087 69.745 13.605 69.871 14.109C69.997 14.599 70.193 15.033 70.459 15.411C70.739 15.789 71.096 16.097 71.53 16.335C71.964 16.559 72.489 16.671 73.105 16.671C73.721 16.671 74.232 16.552 74.638 16.314C75.058 16.076 75.394 15.761 75.646 15.369C75.898 14.977 76.08 14.529 76.192 14.025C76.304 13.521 76.36 13.003 76.36 12.471Z" fill="black"/>
<path d="M54.8809 3H56.6659V8.607H56.7079C57.0019 8.005 57.4639 7.571 58.0939 7.305C58.7239 7.025 59.4169 6.885 60.1729 6.885C61.0129 6.885 61.7409 7.039 62.3569 7.347C62.9869 7.655 63.5049 8.075 63.9109 8.607C64.3309 9.125 64.6459 9.727 64.8559 10.413C65.0659 11.099 65.1709 11.827 65.1709 12.597C65.1709 13.367 65.0659 14.095 64.8559 14.781C64.6599 15.467 64.3519 16.069 63.9319 16.587C63.5259 17.091 63.0079 17.49 62.3779 17.784C61.7619 18.078 61.0409 18.225 60.2149 18.225C59.9489 18.225 59.6479 18.197 59.3119 18.141C58.9899 18.085 58.6679 17.994 58.3459 17.868C58.0239 17.742 57.7159 17.574 57.4219 17.364C57.1419 17.14 56.9039 16.867 56.7079 16.545H56.6659V17.994H54.8809V3ZM63.2809 12.471C63.2809 11.967 63.2109 11.477 63.0709 11.001C62.9449 10.511 62.7419 10.077 62.4619 9.699C62.1959 9.321 61.8459 9.02 61.4119 8.796C60.9919 8.572 60.4949 8.46 59.9209 8.46C59.3189 8.46 58.8079 8.579 58.3879 8.817C57.9679 9.055 57.6249 9.37 57.3589 9.762C57.0929 10.14 56.8969 10.574 56.7709 11.064C56.6589 11.554 56.6029 12.051 56.6029 12.555C56.6029 13.087 56.6659 13.605 56.7919 14.109C56.9179 14.599 57.1139 15.033 57.3799 15.411C57.6599 15.789 58.0169 16.097 58.4509 16.335C58.8849 16.559 59.4099 16.671 60.0259 16.671C60.6419 16.671 61.1529 16.552 61.5589 16.314C61.9789 16.076 62.3149 15.761 62.5669 15.369C62.8189 14.977 63.0009 14.529 63.1129 14.025C63.2249 13.521 63.2809 13.003 63.2809 12.471Z" fill="black"/>
<path d="M52.5273 17.952C52.2193 18.134 51.7923 18.225 51.2463 18.225C50.7843 18.225 50.4133 18.099 50.1333 17.847C49.8673 17.581 49.7343 17.154 49.7343 16.566C49.2443 17.154 48.6703 17.581 48.0123 17.847C47.3683 18.099 46.6683 18.225 45.9123 18.225C45.4223 18.225 44.9533 18.169 44.5053 18.057C44.0713 17.945 43.6933 17.77 43.3713 17.532C43.0493 17.294 42.7903 16.986 42.5943 16.608C42.4123 16.216 42.3213 15.7469 42.3213 15.2009C42.3213 14.5849 42.4263 14.081 42.6363 13.689C42.8463 13.297 43.1193 12.9819 43.4553 12.744C43.8053 12.492 44.1973 12.3029 44.6313 12.1769C45.0793 12.0509 45.5343 11.9459 45.9963 11.8619C46.4863 11.7639 46.9483 11.6939 47.3823 11.6519C47.8303 11.5959 48.2223 11.5259 48.5583 11.4419C48.8943 11.3439 49.1603 11.2109 49.3563 11.0429C49.5523 10.8609 49.6503 10.6019 49.6503 10.2659C49.6503 9.87395 49.5733 9.55895 49.4193 9.32095C49.2793 9.08295 49.0903 8.90095 48.8523 8.77495C48.6283 8.64895 48.3693 8.56495 48.0753 8.52295C47.7953 8.48095 47.5153 8.45995 47.2353 8.45995C46.4793 8.45995 45.8493 8.60695 45.3453 8.90095C44.8413 9.18095 44.5683 9.71995 44.5263 10.5179H42.7413C42.7693 9.84595 42.9093 9.27895 43.1613 8.81695C43.4133 8.35495 43.7493 7.98395 44.1693 7.70395C44.5893 7.40995 45.0653 7.19995 45.5973 7.07395C46.1433 6.94795 46.7243 6.88495 47.3403 6.88495C47.8303 6.88495 48.3133 6.91995 48.7893 6.98995C49.2793 7.05995 49.7203 7.20695 50.1123 7.43095C50.5043 7.64095 50.8193 7.94195 51.0573 8.33395C51.2953 8.72595 51.4143 9.23695 51.4143 9.86695V15.4529C51.4143 15.873 51.4353 16.181 51.4773 16.377C51.5333 16.573 51.7013 16.671 51.9813 16.671C52.1353 16.671 52.3173 16.636 52.5273 16.566V17.952ZM49.6293 12.387C49.4053 12.555 49.1113 12.6809 48.7473 12.765C48.3833 12.8349 47.9983 12.8979 47.5923 12.9539C47.2003 12.9959 46.8013 13.0519 46.3953 13.1219C45.9893 13.1779 45.6253 13.276 45.3033 13.416C44.9813 13.556 44.7153 13.759 44.5053 14.025C44.3093 14.277 44.2113 14.627 44.2113 15.075C44.2113 15.369 44.2673 15.6209 44.3793 15.8309C44.5053 16.0269 44.6593 16.188 44.8413 16.314C45.0373 16.44 45.2613 16.531 45.5133 16.587C45.7653 16.643 46.0313 16.671 46.3113 16.671C46.8993 16.671 47.4033 16.594 47.8233 16.44C48.2433 16.2719 48.5863 16.0689 48.8523 15.8309C49.1183 15.5789 49.3143 15.313 49.4403 15.033C49.5663 14.739 49.6293 14.4659 49.6293 14.2139V12.387Z" fill="black"/>
<path d="M38.133 7.13702H40.296V8.71202H38.133V15.453C38.133 15.663 38.147 15.831 38.175 15.957C38.217 16.083 38.287 16.181 38.385 16.251C38.483 16.321 38.616 16.37 38.784 16.398C38.966 16.412 39.197 16.419 39.477 16.419H40.296V17.994H38.931C38.469 17.994 38.07 17.966 37.734 17.91C37.412 17.84 37.146 17.721 36.936 17.553C36.74 17.385 36.593 17.147 36.495 16.839C36.397 16.531 36.348 16.125 36.348 15.621V8.71202H34.5V7.13702H36.348V3.88202H38.133V7.13702Z" fill="black"/>
<defs>
<clipPath id="clip0_1446_7581">
<rect width="24" height="24" fill="white"/>
</clipPath>
</defs>
</svg>
